<?xml version="1.0" encoding="iso-8859-1"?>
<!-- Uploaded to: SVG Repo, www.svgrepo.com, Generator: SVG Repo Mixer Tools -->
<!DOCTYPE svg PUBLIC "-//W3C//DTD SVG 1.1//EN" "http://www.w3.org/Graphics/SVG/1.1/DTD/svg11.dtd">
<svg fill="#00E396" version="1.1" id="Capa_1" xmlns="http://www.w3.org/2000/svg" xmlns:xlink="http://www.w3.org/1999/xlink" 
	 width="800px" height="800px" viewBox="0 0 462.4 462.4" xml:space="preserve"
	>
<g>
	<path d="M415.072,54.4H47.328C32.457,54.4,20.4,42.344,20.4,27.472v-0.544C20.4,12.057,32.457,0,47.328,0h367.744
		C429.943,0,442,12.057,442,26.928v0.544C442,42.344,429.943,54.4,415.072,54.4z M421.601,68v224.4c0,18.774-15.226,34-34,34H238
		v62.961l91.909,36.761c6.97,2.795,10.363,10.703,7.575,17.687c-2.788,6.964-10.676,10.35-17.687,7.575L238,418.656V448.8
		c0,7.508-6.093,13.601-13.6,13.601c-7.507,0-13.6-6.093-13.6-13.601v-30.008l-81.729,33.259c-1.679,0.687-3.414,1.006-5.12,1.006
		c-5.372,0-10.452-3.202-12.607-8.479c-2.829-6.956,0.51-14.892,7.473-17.721l91.984-37.434V326.4h-136c-18.775,0-34-15.226-34-34
		V68H421.601z M163.2,210.8h-40.8v68h40.8V210.8z M251.601,115.6h-40.8v163.2h40.8V115.6z M340,156.4h-40.8V278.8H340V156.4z"/>
</g>
</svg>